<svg width="19" height="9" viewBox="0 0 19 9" fill="none" xmlns="http://www.w3.org/2000/svg">
<path d="M5.82 7.416C5.82 7.704 5.748 7.968 5.604 8.208C5.46 8.448 5.268 8.64 5.028 8.784C4.788 8.928 4.524 9 4.236 9H1.032C0.88 9 0.748 8.948 0.636 8.844C0.532 8.732 0.48 8.6 0.48 8.448V1.44C0.48 1.28 0.532 1.148 0.636 1.044C0.748 0.939999 0.88 0.887999 1.032 0.887999H4.068C4.364 0.887999 4.628 0.959999 4.86 1.104C5.1 1.248 5.292 1.44 5.436 1.68C5.58 1.92 5.652 2.188 5.652 2.484V3.912C5.652 4.128 5.612 4.328 5.532 4.512C5.492 4.6 5.5 4.688 5.556 4.776C5.732 5.04 5.82 5.336 5.82 5.664V7.416ZM4.236 3.912V2.484C4.236 2.436 4.216 2.396 4.176 2.364C4.144 2.332 4.108 2.316 4.068 2.316H2.076C1.972 2.316 1.92 2.368 1.92 2.472V3.912C1.92 4.016 1.972 4.068 2.076 4.068H4.068C4.108 4.068 4.144 4.052 4.176 4.02C4.216 3.988 4.236 3.952 4.236 3.912ZM4.392 7.416V5.664C4.392 5.552 4.34 5.496 4.236 5.496H2.076C1.972 5.496 1.92 5.548 1.92 5.652V7.428C1.92 7.532 1.972 7.584 2.076 7.584H4.236C4.276 7.584 4.312 7.568 4.344 7.536C4.376 7.496 4.392 7.456 4.392 7.416ZM12.0044 1.764C12.0044 1.916 11.9484 2.048 11.8364 2.16C11.7324 2.264 11.6084 2.316 11.4644 2.316H8.36841C8.27241 2.316 8.22441 2.368 8.22441 2.472V4.068C8.22441 4.18 8.27241 4.236 8.36841 4.236H11.0324C11.1924 4.236 11.3244 4.288 11.4284 4.392C11.5324 4.496 11.5844 4.624 11.5844 4.776V5.112C11.5844 5.264 11.5324 5.396 11.4284 5.508C11.3244 5.612 11.1924 5.664 11.0324 5.664H8.36841C8.27241 5.664 8.22441 5.712 8.22441 5.808V8.448C8.22441 8.6 8.16841 8.732 8.05641 8.844C7.95241 8.948 7.82441 9 7.67241 9H7.33641C7.19241 9 7.06441 8.948 6.95241 8.844C6.84841 8.732 6.79641 8.6 6.79641 8.448V1.44C6.79641 1.28 6.84841 1.148 6.95241 1.044C7.06441 0.939999 7.19241 0.887999 7.33641 0.887999H11.4644C11.6084 0.887999 11.7324 0.939999 11.8364 1.044C11.9484 1.148 12.0044 1.28 12.0044 1.44V1.764ZM18.4565 7.416C18.4565 7.704 18.3845 7.968 18.2405 8.208C18.0965 8.448 17.9045 8.64 17.6645 8.784C17.4245 8.928 17.1605 9 16.8725 9H14.5685C14.2805 9 14.0125 8.928 13.7645 8.784C13.5245 8.64 13.3325 8.448 13.1885 8.208C13.0445 7.968 12.9725 7.704 12.9725 7.416V7.056C12.9725 6.904 13.0245 6.776 13.1285 6.672C13.2405 6.56 13.3725 6.504 13.5245 6.504H13.8605C14.0045 6.504 14.1285 6.56 14.2325 6.672C14.3445 6.776 14.4005 6.904 14.4005 7.056V7.416C14.4005 7.456 14.4165 7.496 14.4485 7.536C14.4885 7.568 14.5285 7.584 14.5685 7.584H16.8725C16.9125 7.584 16.9485 7.568 16.9805 7.536C17.0125 7.496 17.0285 7.456 17.0285 7.416V6.324C17.0285 6.236 16.9885 6.18 16.9085 6.156L14.0285 5.076C13.7085 4.964 13.4525 4.768 13.2605 4.488C13.0685 4.208 12.9725 3.9 12.9725 3.564V2.484C12.9725 2.188 13.0445 1.92 13.1885 1.68C13.3325 1.44 13.5245 1.248 13.7645 1.104C14.0125 0.959999 14.2805 0.887999 14.5685 0.887999H16.8725C17.1605 0.887999 17.4245 0.959999 17.6645 1.104C17.9045 1.248 18.0965 1.44 18.2405 1.68C18.3845 1.92 18.4565 2.188 18.4565 2.484V2.808C18.4565 2.96 18.4005 3.088 18.2885 3.192C18.1845 3.296 18.0565 3.348 17.9045 3.348H17.5805C17.4285 3.348 17.2965 3.296 17.1845 3.192C17.0805 3.088 17.0285 2.96 17.0285 2.808V2.484C17.0285 2.372 16.9765 2.316 16.8725 2.316H14.5685C14.5285 2.316 14.4885 2.332 14.4485 2.364C14.4165 2.396 14.4005 2.436 14.4005 2.484V3.564C14.4005 3.66 14.4405 3.72 14.5205 3.744L17.4125 4.824C17.7245 4.936 17.9765 5.132 18.1685 5.412C18.3605 5.692 18.4565 5.996 18.4565 6.324V7.416Z" fill="black"/>
</svg>
