<svg width="23" height="9" viewBox="0 0 23 9" fill="none" xmlns="http://www.w3.org/2000/svg">
<path d="M9.126 0.94L7.397 8.532C7.36233 8.67067 7.28867 8.78333 7.176 8.87C7.072 8.95667 6.95067 9 6.812 9H6.344C6.214 9 6.097 8.961 5.993 8.883C5.889 8.805 5.81533 8.70533 5.772 8.584L5.72 8.415C5.60733 8.05967 5.47733 7.648 5.33 7.18C5.19133 6.712 5.044 6.22233 4.888 5.711C4.87933 5.67633 4.85767 5.659 4.823 5.659C4.797 5.659 4.77967 5.67633 4.771 5.711C4.64967 6.09233 4.53267 6.47367 4.42 6.855C4.30733 7.22767 4.20333 7.56567 4.108 7.869C4.02133 8.17233 3.94767 8.41067 3.887 8.584C3.85233 8.69667 3.77867 8.79633 3.666 8.883C3.562 8.961 3.445 9 3.315 9H2.834C2.69533 9 2.56967 8.95667 2.457 8.87C2.353 8.78333 2.288 8.67067 2.262 8.532L0.533 0.94C0.498333 0.766666 0.533 0.597666 0.637 0.432999C0.706333 0.363666 0.78 0.311666 0.858 0.277C0.936 0.233666 1.02267 0.211999 1.118 0.211999H1.482C1.62067 0.211999 1.742 0.255333 1.846 0.342C1.95867 0.428666 2.03233 0.537 2.067 0.667L3.12 5.373C3.12867 5.399 3.15033 5.412 3.185 5.412C3.21967 5.412 3.24567 5.399 3.263 5.373C3.263 5.373 3.289 5.27767 3.341 5.087C3.40167 4.89633 3.47967 4.645 3.575 4.333C3.67033 4.01233 3.77867 3.657 3.9 3.267C4.02133 2.877 4.14267 2.48267 4.264 2.084C4.30733 1.96267 4.37667 1.863 4.472 1.785C4.56733 1.69833 4.68433 1.655 4.823 1.655C4.97033 1.655 5.09167 1.69833 5.187 1.785C5.291 1.863 5.36033 1.967 5.395 2.097L6.396 5.373C6.41333 5.399 6.43933 5.412 6.474 5.412C6.50867 5.412 6.53033 5.399 6.539 5.373C6.65167 4.86167 6.76433 4.35467 6.877 3.852C6.98967 3.34933 7.09367 2.88133 7.189 2.448C7.293 2.01467 7.37967 1.642 7.449 1.33C7.51833 1.018 7.566 0.796999 7.592 0.667C7.62667 0.537 7.696 0.428666 7.8 0.342C7.91267 0.255333 8.03833 0.211999 8.177 0.211999H8.541C8.63633 0.211999 8.723 0.233666 8.801 0.277C8.879 0.311666 8.94833 0.363666 9.009 0.432999C9.13033 0.589 9.16933 0.758 9.126 0.94ZM15.8231 1.161C15.8231 1.32567 15.7625 1.46867 15.6411 1.59C15.5285 1.70267 15.3941 1.759 15.2381 1.759H11.8841C11.7801 1.759 11.7281 1.81533 11.7281 1.928V3.657C11.7281 3.77833 11.7801 3.839 11.8841 3.839H14.7701C14.9435 3.839 15.0865 3.89533 15.1991 4.008C15.3118 4.12067 15.3681 4.25933 15.3681 4.424V4.788C15.3681 4.95267 15.3118 5.09567 15.1991 5.217C15.0865 5.32967 14.9435 5.386 14.7701 5.386H11.8841C11.7801 5.386 11.7281 5.438 11.7281 5.542V8.402C11.7281 8.56667 11.6675 8.70967 11.5461 8.831C11.4335 8.94367 11.2948 9 11.1301 9H10.7661C10.6101 9 10.4715 8.94367 10.3501 8.831C10.2375 8.70967 10.1811 8.56667 10.1811 8.402V0.809999C10.1811 0.636666 10.2375 0.493666 10.3501 0.380999C10.4715 0.268333 10.6101 0.211999 10.7661 0.211999H15.2381C15.3941 0.211999 15.5285 0.268333 15.6411 0.380999C15.7625 0.493666 15.8231 0.636666 15.8231 0.809999V1.161ZM22.8129 7.284C22.8129 7.596 22.7349 7.882 22.5789 8.142C22.4229 8.402 22.2149 8.61 21.9549 8.766C21.6949 8.922 21.4089 9 21.0969 9H18.6009C18.2889 9 17.9985 8.922 17.7299 8.766C17.4699 8.61 17.2619 8.402 17.1059 8.142C16.9499 7.882 16.8719 7.596 16.8719 7.284V6.894C16.8719 6.72933 16.9282 6.59067 17.0409 6.478C17.1622 6.35667 17.3052 6.296 17.4699 6.296H17.8339C17.9899 6.296 18.1242 6.35667 18.2369 6.478C18.3582 6.59067 18.4189 6.72933 18.4189 6.894V7.284C18.4189 7.32733 18.4362 7.37067 18.4709 7.414C18.5142 7.44867 18.5575 7.466 18.6009 7.466H21.0969C21.1402 7.466 21.1792 7.44867 21.2139 7.414C21.2485 7.37067 21.2659 7.32733 21.2659 7.284V6.101C21.2659 6.00567 21.2225 5.945 21.1359 5.919L18.0159 4.749C17.6692 4.62767 17.3919 4.41533 17.1839 4.112C16.9759 3.80867 16.8719 3.475 16.8719 3.111V1.941C16.8719 1.62033 16.9499 1.33 17.1059 1.07C17.2619 0.81 17.4699 0.601999 17.7299 0.445999C17.9985 0.289999 18.2889 0.211999 18.6009 0.211999H21.0969C21.4089 0.211999 21.6949 0.289999 21.9549 0.445999C22.2149 0.601999 22.4229 0.81 22.5789 1.07C22.7349 1.33 22.8129 1.62033 22.8129 1.941V2.292C22.8129 2.45667 22.7522 2.59533 22.6309 2.708C22.5182 2.82067 22.3795 2.877 22.2149 2.877H21.8639C21.6992 2.877 21.5562 2.82067 21.4349 2.708C21.3222 2.59533 21.2659 2.45667 21.2659 2.292V1.941C21.2659 1.81967 21.2095 1.759 21.0969 1.759H18.6009C18.5575 1.759 18.5142 1.77633 18.4709 1.811C18.4362 1.84567 18.4189 1.889 18.4189 1.941V3.111C18.4189 3.215 18.4622 3.28 18.5489 3.306L21.6819 4.476C22.0199 4.59733 22.2929 4.80967 22.5009 5.113C22.7089 5.41633 22.8129 5.74567 22.8129 6.101V7.284Z" fill="black"/>
</svg>
